# xmcd
#
# Track frame offsets:
#	150
#	18157
#	32177
#	48515
#	69630
#	82825
#	96292
#	118100
#	129900
#	150415
#	168960
#	185445
#	198452
#	220830
#	243012
#
# Disc length: 3450 seconds
#
# Revision: 1
# Processed by: cddbd v1.5.1PL0 Copyright (c) Steve Scherf et al.
# Submitted via: CDex 1.50Beta5
#
DISCID=bd0d780f
DTITLE=サウンドトラック - Joy of Hapiness
DYEAR=1900
DGENRE=Soundtrack
TTITLE0=Virgin Road
TTITLE1=Everything Is Gonna Be Alright
TTITLE2=Unchained Melody
TTITLE3=Kiss Of Life
TTITLE4=Tell Him
TTITLE5=Someday My Prince Will Come
TTITLE6=Ave Maria
TTITLE7=It's In His Kiss
TTITLE8=To Love You More
TTITLE9=Beauty And The Beast
TTITLE10=When You Wish Upon A Star
TTITLE11=A Whole New World
TTITLE12=My Heart Will Go on
TTITLE13=Voyage
TTITLE14=End Credit
EXTD=
EXTT0=
EXTT1=
EXTT2=
EXTT3=
EXTT4=
EXTT5=
EXTT6=
EXTT7=
EXTT8=
EXTT9=
EXTT10=
EXTT11=
EXTT12=
EXTT13=
EXTT14=
PLAYORDER=
